<svg width="3000" height="3000" viewBox="0 0 3000 3000" fill="none" xmlns="http://www.w3.org/2000/svg">
<g clip-path="url(#clip0_2790_7234)">
<path fill-rule="evenodd" clip-rule="evenodd" d="M1182.99 2727.08C1190.23 2721.6 1171.63 2721.68 1199.19 2721.68C1192.59 2726.68 1205.27 2725.19 1182.99 2727.08ZM1204.59 2716.28C1195.53 2725.33 1210.48 2719.04 1210.59 2719.08C1225.06 2724.85 1210.31 2710.53 1204.59 2716.28ZM1669.19 2700.07C1643.54 2700.07 1658.95 2700.2 1652.99 2694.68C1678.65 2694.68 1663.23 2694.55 1669.19 2700.07ZM1652.99 2694.68C1647.03 2689.15 1662.44 2689.27 1636.78 2689.27C1642.74 2694.79 1627.33 2694.68 1652.99 2694.68ZM1285.63 2678.47C1293.71 2666.84 1286.43 2671.35 1301.84 2667.67C1293.76 2679.29 1301.04 2674.78 1285.63 2678.47ZM1555.75 2629.86L1577.35 2651.46C1559.55 2646.74 1560.15 2648.36 1555.75 2629.86ZM1534.14 2602.85C1545.74 2610.93 1541.25 2603.65 1544.94 2619.05C1533.32 2610.98 1537.83 2618.25 1534.14 2602.85ZM1350.46 2619.05C1354.15 2603.64 1349.66 2610.93 1361.26 2602.85C1357.57 2618.26 1362.06 2610.98 1350.46 2619.05ZM1366.67 2597.44C1370.36 2582.03 1365.87 2589.32 1377.47 2581.24C1373.78 2596.66 1378.27 2589.37 1366.67 2597.44ZM1517.93 2575.84L1519.53 2577.44C1519.43 2577.34 1517.39 2576.37 1517.93 2575.84ZM1507.13 2543.44C1512.65 2549.4 1512.53 2533.98 1512.53 2559.64C1507.01 2553.68 1507.13 2569.09 1507.13 2543.44ZM1415.28 2505.63L1416.88 2507.23C1416.77 2507.12 1414.73 2506.16 1415.28 2505.63ZM1431.48 2473.22C1431.48 2498.88 1431.61 2483.46 1426.08 2489.42C1426.08 2463.76 1425.96 2479.18 1431.48 2473.22ZM1436.89 2457.01C1431.36 2462.97 1431.48 2447.56 1431.48 2473.22C1437.01 2467.25 1436.89 2482.67 1436.89 2457.01ZM1442.29 2435.41C1442.43 2438.9 1442.31 2442.38 1441.93 2445.85C1439.13 2455.64 1440.43 2451.63 1436.89 2457.02C1436.75 2453.54 1436.87 2450.05 1437.25 2446.58C1440.05 2436.79 1438.74 2440.8 1442.29 2435.41ZM1507.12 2343.57C1507.12 2316 1507.04 2334.61 1512.52 2327.37C1512.52 2355.93 1512.48 2335.42 1507.12 2343.57ZM1512.52 2316.56C1512.52 2331.64 1515.67 2316.56 1515.72 2316.56C1521.06 2315.69 1512.52 2302.74 1512.52 2316.56ZM1442.29 2284.16C1442.29 2315.19 1447.95 2325.41 1447.95 2359.79C1447.95 2394.17 1442.29 2404.4 1442.29 2435.43C1516.22 2385.92 1474.39 2496.38 1507.12 2543.48C1506.32 2508.11 1495.74 2486.3 1496.05 2440.72C1496.32 2402.32 1506.39 2376.21 1507.12 2343.59C1506.37 2344.67 1505.54 2346.28 1505.12 2346.99L1503.12 2350.39C1502.6 2351.26 1501.68 2352.83 1501.12 2353.79L1490.91 2370.59H1463.9C1444.3 2333.54 1459.67 2333.83 1445.53 2291.72L1442.29 2284.15L1442.29 2284.16ZM1436.89 2267.95C1442.41 2273.91 1442.29 2258.5 1442.29 2284.15C1436.77 2278.19 1436.89 2293.6 1436.89 2267.95ZM1528.73 2273.35L1530.33 2274.95C1530.22 2274.84 1528.18 2273.87 1528.73 2273.35ZM1431.48 2251.75C1431.48 2277.41 1431.36 2262 1436.88 2267.96C1436.88 2242.3 1437 2257.71 1431.48 2251.75ZM1420.66 2230.14L1422.26 2231.74C1422.15 2231.64 1420.11 2230.67 1420.66 2230.14ZM929.059 2235.54C962.303 2235.54 990.991 2240.83 1031.77 2241.02C1077.63 2241.23 1098.94 2230.93 1134.35 2230.14L1089.05 2244.27C1071.58 2246.84 1047.33 2248.92 1035.45 2250.48L932.791 2237.2C931.501 2236.74 930.257 2236.16 929.075 2235.47L929.059 2235.54ZM929.059 2235.54C920.907 2230.18 941.415 2230.14 912.851 2230.14C920.099 2235.62 901.491 2235.54 929.059 2235.54ZM1155.96 2224.74C1133.68 2226.64 1146.36 2225.14 1139.75 2230.14C1167.32 2230.14 1148.71 2230.22 1155.96 2224.74ZM896.643 2224.74C902.387 2219 917.135 2233.32 902.663 2227.54C902.539 2227.49 887.599 2233.78 896.643 2224.74ZM1415.29 2219.34L1416.89 2220.94C1416.78 2220.84 1414.73 2219.87 1415.29 2219.34ZM821.031 2246.34C836.059 2223.9 837.235 2236.7 837.235 2197.72C854.007 2202.2 845.755 2200.9 859.395 2207.98C864.903 2210.84 864.711 2210.7 870.023 2213.56L880.455 2219.33C829.971 2219.33 856.835 2236.78 821.031 2246.34ZM1409.88 2208.54L1411.48 2210.14C1411.37 2210.04 1409.33 2209.07 1409.88 2208.54ZM1199.19 2203.15L1200.79 2204.75C1200.69 2204.64 1198.64 2203.67 1199.19 2203.15ZM1404.49 2197.74L1406.09 2199.34C1405.98 2199.24 1403.94 2198.27 1404.49 2197.74ZM837.235 2197.65C829.159 2186.02 836.435 2190.53 821.031 2186.85C829.107 2198.47 821.831 2193.96 837.235 2197.65ZM2187.83 2165.25C2199.45 2173.33 2194.94 2166.05 2198.63 2181.46C2187 2173.38 2191.51 2180.66 2187.83 2165.25ZM788.635 2154.45L815.647 2181.46C798.047 2176.77 793.331 2172.04 788.635 2154.45ZM1264.04 2165.25C1273.52 2151.1 1266.77 2154.09 1285.64 2149.04C1276.17 2163.2 1282.91 2160.21 1264.04 2165.25ZM2160.8 2138.23C2145.38 2134.54 2152.67 2139.03 2144.59 2127.43C2160.01 2131.12 2152.72 2126.61 2160.8 2138.23ZM1291.03 2143.63C1295.77 2125.87 1298.87 2125.84 1312.63 2116.61C1307.89 2134.37 1304.79 2134.4 1291.03 2143.63ZM2052.79 2078.79C2058.53 2073.05 2073.28 2087.36 2058.79 2081.59C2058.66 2081.54 2043.72 2087.83 2052.79 2078.79ZM2031.19 2073.39C2039.34 2078.75 2018.83 2078.79 2047.39 2078.79C2040.15 2073.31 2058.75 2073.39 2031.19 2073.39ZM750.803 1997.76C750.803 2013.69 750.163 2030.81 750.627 2046.56C751.395 2072.89 755.679 2071.6 756.203 2095.01C755.459 2093.94 754.363 2090.95 754.099 2091.72L747.403 2076.79C743.155 2060.22 741.831 2011.9 750.803 1997.76ZM2031.16 2073.4C2027.68 2073.54 2024.19 2073.42 2020.72 2073.03C2010.94 2070.23 2014.94 2071.54 2009.55 2068C2013.04 2067.86 2016.53 2067.97 2019.99 2068.35C2029.78 2071.17 2025.77 2069.85 2031.16 2073.4ZM1847.48 2019.37C1847.48 2076.51 1874.57 2054.17 1912.75 2051.91L2009.55 2068C1965.8 2068 1917.48 2057.11 1865.03 2063.94C1823.07 2069.4 1781.78 2080.5 1749.2 2099.38C1681.38 2138.67 1669.62 2123.21 1608.47 2185.54C1591.41 2202.92 1585.94 2206.28 1566.55 2219.26C1575.73 2184.89 1614.11 2191.84 1593.57 2149.03C1572.67 2139 1515.63 2152.91 1476.06 2147.68C1464.53 2146.16 1432.88 2138.23 1419.75 2137.78C1387.7 2136.71 1393.68 2147.51 1393.68 2176.04C1388.45 2170.36 1383.74 2164.22 1379.62 2157.69C1373.38 2147.56 1371.71 2141.37 1366.71 2132.77C1354.54 2111.86 1350.34 2111.22 1318.05 2111.22C1323.55 2090.62 1337.46 2077.22 1345.35 2046.68C1352.55 2018.86 1350.46 1989.63 1350.46 1954.54C1351.36 1955.64 1351.91 1956.99 1352.03 1958.4C1352.3 1959.79 1352.81 1961.13 1353.53 1962.35C1353.81 1963.32 1354.53 1965.27 1354.87 1966.48C1355.21 1967.7 1355.67 1969.41 1356.03 1970.84C1371.45 2033.07 1320.83 2073.72 1378.23 2110.44C1479.88 2175.48 1707.07 2131.06 1815.89 2041.8C1830.97 2029.44 1827.59 2024.67 1847.49 2019.36L1847.48 2019.37ZM750.799 1997.77C754.591 1991.79 754.435 1998.5 755.251 1986.97C756.871 1964.1 757.203 1986.27 750.799 1976.17V1997.77ZM1863.68 2003.18C1868.72 1984.3 1865.74 1991.04 1879.89 1981.58C1874.85 2000.45 1877.84 1993.71 1863.68 2003.18ZM756.187 1965.36C756.187 1951.54 764.743 1964.5 759.387 1965.36C759.323 1965.36 756.187 1980.44 756.187 1965.36ZM2220.23 1965.36C2216.75 1965.5 2213.25 1965.38 2209.79 1965C2200 1962.2 2204.01 1963.51 2198.62 1959.96C2202.1 1959.82 2205.59 1959.94 2209.06 1960.32C2218.85 1963.12 2214.84 1961.82 2220.23 1965.36ZM2198.63 1959.96L2187.8 1954.56C2189.96 1961.16 2168.7 1959.96 2198.63 1959.96ZM1345.05 1938.35C1345.05 1964.01 1344.94 1948.6 1350.46 1954.56C1350.46 1928.9 1350.58 1944.31 1345.05 1938.35ZM2166.2 1949.15C2140.54 1949.15 2155.95 1949.27 2149.99 1943.75C2175.65 1943.75 2160.24 1943.63 2166.2 1949.15ZM2101.39 1916.74L2096 1911.32L2101.41 1916.73L2101.39 1916.74ZM2096 1911.32C2080.59 1907.63 2087.87 1912.12 2079.79 1900.52C2095.21 1904.22 2087.92 1899.72 2096 1911.32ZM1939.31 1873.52C1939.31 1899.17 1939.43 1883.75 1933.9 1889.72C1933.9 1864.06 1933.79 1879.48 1939.31 1873.52ZM1312.63 1878.92C1324.25 1886.99 1319.75 1879.72 1323.43 1895.12C1311.81 1887.05 1316.32 1894.32 1312.63 1878.92ZM1069.53 1873.52L1062.33 1877.11C1061.15 1877.56 1050.63 1881.24 1050.33 1881.32L972.303 1890.1C949.083 1890.1 936.547 1887.2 917.903 1884.69L869.643 1873.53C902.519 1873.53 926.867 1879 966.879 1878.94C984.155 1878.9 1004 1879.86 1020.93 1878.94C1041.73 1877.82 1047.36 1873.51 1069.53 1873.51L1069.53 1873.52ZM1944.71 1857.31C1939.19 1863.27 1939.31 1847.86 1939.31 1873.52C1944.83 1867.55 1944.71 1882.97 1944.71 1857.31ZM1091.14 1868.11C1086.17 1867.79 1081.19 1868.28 1076.37 1869.54C1075.49 1869.73 1073.38 1872.49 1072.74 1871.32C1072.09 1870.14 1070.62 1872.8 1069.54 1873.51C1074.51 1873.82 1079.49 1873.34 1084.31 1872.08C1085.19 1871.88 1087.3 1871.82 1087.94 1870.3C1088.56 1868.84 1090.07 1868.82 1091.14 1868.11ZM869.651 1873.51C864.259 1869.96 868.267 1871.28 858.479 1868.46C855.012 1868.09 851.523 1867.97 848.039 1868.11C853.431 1871.65 849.423 1870.33 859.211 1873.15C862.677 1873.53 866.167 1873.65 869.651 1873.51ZM1107.37 1862.71C1101.41 1868.23 1116.82 1868.11 1091.16 1868.11C1097.11 1862.58 1081.69 1862.71 1107.35 1862.71H1107.37ZM1107.37 1862.71L1123.55 1857.3C1096.39 1857.3 1113.09 1855.85 1107.37 1862.71ZM2031.17 1846.5C2042.8 1854.58 2038.29 1847.3 2041.97 1862.71C2030.35 1854.62 2034.86 1861.91 2031.17 1846.5ZM848.047 1868.11H821.039C812.175 1881.34 807.495 1891.5 794.023 1900.51C799.747 1879.08 812.151 1878.41 799.427 1851.89C808.587 1852.23 817.616 1854.17 826.107 1857.62C830.128 1858.72 834.008 1860.28 837.667 1862.27C848.519 1867.38 842.467 1864.23 848.047 1868.09V1868.11ZM1301.85 1868.11L1274.84 1841.09C1292.44 1845.79 1297.15 1850.52 1301.85 1868.11ZM2004.15 1797.88C2011.01 1803.6 2009.55 1786.9 2009.55 1814.06L2004.15 1797.88ZM712.987 1803.27C697.571 1799.58 704.859 1804.07 696.783 1792.47C712.199 1796.16 704.911 1791.65 712.987 1803.27ZM664.379 1760.06L680.587 1776.27C664.291 1771.92 668.707 1776.34 664.359 1760.06L664.379 1760.06ZM1247.83 1819.49C1217.11 1811.29 1241 1804.35 1199.21 1814.09C1202.54 1809.55 1268.92 1747.83 1274.85 1743.86C1265.87 1777.46 1225.45 1772.85 1247.83 1819.49ZM637.347 1727.65C648.971 1735.73 644.459 1728.45 648.147 1743.86C636.523 1735.78 641.035 1743.06 637.347 1727.65ZM1285.63 1733.05C1289.32 1717.64 1284.83 1724.92 1296.43 1716.84C1292.74 1732.26 1297.23 1724.97 1285.63 1733.05ZM2004.15 1797.89C1946.51 1759.29 1961.69 1819.26 1946.55 1853.74C1946.02 1854.97 1945.41 1856.17 1944.72 1857.32C1944.72 1832.21 1948.13 1834.69 1949.84 1813.81C1951.16 1797.73 1950.32 1776.48 1950.32 1759.88C1950.32 1711.83 1936.77 1702.53 1933.92 1668.23C1947.97 1683.03 1944.22 1679.03 1971.74 1679.03C1977.67 1666.66 1975.28 1670.53 1979.23 1654.11L1986.32 1628.78C1986.74 1627.47 1987.28 1626.21 1987.95 1625.01C1987.95 1667.06 1982.82 1677.41 1986.84 1712.3C1988.95 1730.72 1989.05 1743.72 1991.98 1756.03C1996.24 1773.95 2000.31 1781.38 2004.15 1797.89ZM1901.5 1619.6C1913.13 1627.67 1908.62 1620.4 1912.3 1635.8C1900.68 1627.73 1905.19 1635 1901.5 1619.6ZM1350.46 1614.2C1350.46 1639.85 1350.58 1624.44 1345.05 1630.4C1345.05 1604.74 1344.94 1620.16 1350.46 1614.2ZM1993.34 1603.4C1989.79 1608.78 1991.12 1604.77 1988.3 1614.56C1987.92 1618.03 1987.8 1621.52 1987.94 1625C1991.49 1619.62 1990.16 1623.62 1992.98 1613.84C1993.36 1610.37 1993.48 1606.88 1993.34 1603.4ZM1355.86 1598C1350.34 1603.96 1350.46 1588.55 1350.46 1614.21C1355.98 1608.25 1355.86 1623.66 1355.86 1598ZM1993.34 1603.4C1993.34 1573.46 1992.14 1594.73 1998.74 1592.56L1993.34 1603.4ZM1361.26 1581.78C1361.26 1607.44 1361.39 1592.03 1355.86 1597.99C1355.86 1572.33 1355.74 1587.75 1361.26 1581.78ZM1874.49 1592.58C1859.07 1588.89 1866.36 1593.38 1858.29 1581.78C1873.7 1585.48 1866.41 1580.98 1874.49 1592.58ZM2004.15 1570.98L1998.74 1581.78C2008.83 1574.54 2013.97 1592.68 2004.15 1570.98ZM1739.44 1570.98C1732.1 1575.64 1744.41 1570.63 1728.41 1576.15C1682.28 1592.09 1539.98 1591.82 1507.14 1570.98C1545.16 1570.98 1576.81 1581.91 1620.53 1581.98C1667.53 1582.06 1699.73 1570.98 1739.44 1570.98ZM2004.15 1570.98C2004.15 1551.14 2002.89 1564.49 2009.55 1565.55C2009.55 1578.85 2011.37 1564.94 2004.15 1570.98ZM1755.65 1565.58C1729.99 1565.58 1745.4 1565.46 1739.44 1570.98C1765.09 1570.98 1749.68 1571.1 1755.65 1565.58ZM1507.14 1570.98C1501.75 1567.44 1505.75 1568.76 1495.97 1565.94C1492.5 1565.56 1489.01 1565.43 1485.53 1565.58C1490.92 1569.12 1486.91 1567.8 1496.69 1570.62C1500.16 1571 1503.65 1571.12 1507.14 1570.98ZM1771.85 1560.18C1765.89 1565.7 1781.3 1565.58 1755.65 1565.58C1761.61 1560.06 1746.19 1560.18 1771.85 1560.18ZM1485.53 1565.58C1459.87 1565.58 1475.28 1565.7 1469.32 1560.18C1494.98 1560.18 1479.57 1560.06 1485.53 1565.58ZM1836.68 1533.18C1836.68 1555.91 1834.41 1555 1842.09 1570.99C1812.49 1568.53 1813.75 1560.2 1771.85 1560.2C1786.31 1540.47 1774.65 1554.84 1801.41 1546.54C1818.94 1541.1 1819.01 1537.29 1836.68 1533.18ZM1469.32 1560.19C1463.36 1554.67 1478.77 1554.79 1453.11 1554.79C1459.07 1560.31 1443.66 1560.19 1469.32 1560.19ZM2009.55 1549.39C2008.42 1549.39 2011.86 1551.44 2012.11 1551.67L2009.55 1549.39ZM1453.11 1554.8C1427.45 1554.8 1442.87 1554.91 1436.91 1549.39C1462.56 1549.39 1447.15 1549.27 1453.11 1554.8ZM1436.91 1549.39L1426.11 1543.99C1433.35 1554.07 1415.22 1559.21 1436.91 1549.39ZM2014.96 1538.59L2017.51 1540.86C2017.26 1540.64 2013.82 1538.6 2014.96 1538.59ZM1415.29 1538.59L1417.85 1540.86C1417.6 1540.64 1414.79 1539.61 1415.29 1538.59ZM1361.26 1581.78L1364.57 1574.28C1379.52 1533.81 1369.08 1538.56 1415.26 1538.56C1401.39 1531.56 1393.13 1528.26 1382.98 1521.94C1367.11 1512.06 1375.61 1511.42 1355.86 1506.15C1377.27 1546.6 1361.26 1537.85 1361.26 1581.78ZM2047.37 1495.35C2051.06 1479.93 2046.57 1487.22 2058.17 1479.14C2054.48 1494.56 2058.97 1487.27 2047.37 1495.35ZM1339.65 1495.35C1320.78 1490.31 1327.52 1493.29 1318.05 1479.14C1336.93 1484.18 1330.19 1481.2 1339.65 1495.35ZM1896.1 1489.95L1939.32 1446.73C1936.21 1456.92 1930.64 1466.19 1923.1 1473.73C1915.57 1481.27 1906.29 1486.84 1896.1 1489.95ZM1291.03 1446.72C1305.19 1456.2 1302.2 1449.45 1307.24 1468.32C1293.09 1458.84 1296.07 1465.59 1291.03 1446.72ZM2101.39 1435.92L2096 1441.32L2101.41 1435.92L2101.39 1435.92ZM2101.39 1435.92C2109.47 1424.3 2102.19 1428.81 2117.6 1425.12C2109.52 1436.74 2116.8 1432.23 2101.39 1435.92ZM1950.12 1435.92C1953.81 1420.5 1949.32 1427.79 1960.92 1419.71C1957.23 1435.13 1961.72 1427.84 1950.12 1435.92ZM1258.61 1376.51C1264.09 1383.75 1264.02 1365.15 1264.02 1392.71C1259.02 1386.11 1260.51 1398.79 1258.61 1376.51ZM669.771 1360.31C673.459 1344.9 668.971 1352.18 680.571 1344.1C676.879 1359.52 681.391 1352.23 669.771 1360.31ZM2020.38 1284.7C2020.52 1288.18 2020.4 1291.67 2020.02 1295.14C2017.22 1304.92 2018.53 1300.92 2014.98 1306.31C2014.84 1302.82 2014.96 1299.33 2015.34 1295.87C2018.14 1286.08 2016.83 1290.09 2020.38 1284.7ZM696.803 1327.9C699.161 1318.8 703.911 1310.49 710.56 1303.84C717.209 1297.19 725.516 1292.44 734.619 1290.09L696.803 1327.9ZM1047.94 1284.7C1044.45 1284.84 1040.96 1284.72 1037.5 1284.34C1027.71 1281.54 1031.72 1282.84 1026.33 1279.3C1029.81 1279.16 1033.3 1279.28 1036.77 1279.66C1046.56 1282.48 1042.55 1281.15 1047.94 1284.7ZM745.407 1279.3L740.003 1284.65L745.407 1279.25V1279.3ZM1258.63 1376.54C1258.63 1344.61 1253.1 1296.69 1264.03 1273.9C1230.39 1276.7 1204 1289.84 1161.61 1290.32C1117.32 1290.82 1083.85 1284.72 1047.94 1284.72C1053.9 1288.5 1045.08 1284.91 1058.92 1289.95C1061.24 1290.8 1070.66 1293.35 1071.55 1293.52C1079.66 1294.84 1087.84 1295.68 1096.05 1296.04C1114.59 1298.04 1126.59 1302.79 1149.63 1300.34C1277.81 1286.69 1248.43 1283.5 1248.85 1338.29L1258.63 1376.56V1376.54ZM1026.33 1279.3C1020.37 1273.77 1035.78 1273.9 1010.12 1273.9C1016.09 1279.42 1000.67 1279.3 1026.33 1279.3ZM745.407 1279.3C753.483 1267.67 746.207 1272.18 761.615 1268.5C753.535 1280.12 760.815 1275.62 745.407 1279.3ZM848.027 1225.23C840.787 1230.7 859.391 1230.63 831.819 1230.63C838.427 1225.63 825.751 1227.12 848.027 1225.23ZM848.023 1160.42C868.707 1174.26 896.859 1206.64 918.255 1225.24H848.039C849.007 1224.4 850.643 1221.95 851.063 1222.84L869.651 1203.61C862.491 1172.89 854.591 1184.93 848.051 1160.41L848.023 1160.42ZM1388.26 1203.61L1436.88 1154.99C1431.93 1173.53 1406.8 1198.66 1388.26 1203.61ZM2014.94 1117.21C2014.94 1139.79 2021.93 1180.46 2024.47 1199.9C2027.9 1226.14 2020.34 1251.36 2020.34 1284.7L2027.44 1264.78C2035.71 1231.08 2031 1163.49 2021.51 1132.27L2014.94 1117.22V1117.21ZM1442.29 1149.61C1445.98 1134.2 1441.49 1141.48 1453.09 1133.4C1449.39 1148.82 1453.89 1141.53 1442.29 1149.61ZM2009.53 1101C2015.06 1106.96 2014.94 1091.55 2014.94 1117.2C2009.42 1111.24 2009.53 1126.65 2009.53 1101ZM2004.13 1084.8C2004.13 1110.46 2004.01 1095.05 2009.53 1101.01C2009.53 1075.35 2009.66 1090.76 2004.13 1084.8ZM799.407 1074C804.927 1079.96 804.811 1064.55 804.811 1090.21C799.287 1084.25 799.407 1099.66 799.407 1074ZM1485.51 1063.2C1485.51 1088.86 1485.63 1073.45 1480.1 1079.41C1480.1 1053.75 1479.99 1069.17 1485.51 1063.2ZM794.003 1057.75C794.003 1083.41 793.883 1067.99 799.407 1073.96C799.407 1048.3 799.527 1063.71 794.003 1057.75ZM1490.93 1041.54C1487.38 1046.93 1488.7 1042.93 1485.88 1052.71C1485.5 1056.18 1485.38 1059.67 1485.52 1063.15C1489.07 1057.76 1487.75 1061.77 1490.57 1051.99C1490.94 1048.52 1491.06 1045.03 1490.93 1041.54ZM794.003 1057.75C781.131 1037.46 775.979 956.499 794.003 928.095C794.003 958.807 788.171 962.895 788.171 992.923C788.171 1022.95 794.003 1027.04 794.003 1057.75ZM1933.9 971.315L1912.3 949.715C1930.11 954.439 1929.48 952.815 1933.9 971.315ZM794.015 928.107C799.379 919.951 799.419 940.463 799.419 911.899C793.939 919.143 794.015 900.535 794.015 928.107ZM637.347 1408.91C628.851 1445.37 558.123 1552.83 611.787 1677.57C618.023 1692.07 623.195 1698.91 626.543 1711.44C587.411 1685.24 506.703 1702.83 469.643 1722.01C261.203 1829.91 232.243 2255.92 510.003 2319.6C674.115 2357.2 792.523 2257.86 815.603 2251.7C801.411 2312.61 777.011 2328.2 789.247 2445.52C800.931 2557.52 888.047 2658.8 983.691 2699.48C1056.64 2730.49 1082.98 2727.1 1182.96 2727.1C1167.61 2736.85 1137.8 2735.38 1117.97 2737.77C1050.01 2745.99 1134.96 2855.05 1154.44 2874.48C1266.65 2986.41 1481.31 3011.06 1592.24 2898.68C1618.47 2872.1 1642.64 2850.79 1659.93 2815.1C1668.2 2796.94 1674.63 2778.01 1679.13 2758.57C1688.22 2723.81 1692.96 2720.76 1669.19 2700.09C1723.59 2700.09 1792.85 2723.38 1900.87 2688.67C1964.99 2668.06 2027.77 2638.24 2075.67 2598.74C2150.34 2537.14 2222.57 2463.22 2236.9 2360.18C2245.18 2300.62 2235.46 2293.83 2231.05 2240.89C2231.9 2241.87 2232.95 2242.31 2233.31 2244.05C2233.57 2245.25 2247.37 2273.85 2278.74 2256.73C2324.37 2231.82 2364.48 2170.06 2378.31 2112.63C2382.64 2094.63 2382.23 2061.75 2382.47 2035.46C2382.73 2004.31 2386.7 1981.24 2360.47 1976.26C2349.27 1974.13 2271.76 1983.03 2231.75 1970.05L2224 1967C2222.71 1966.57 2221.45 1966.02 2220.26 1965.35C2253.89 1965.35 2281.89 1971.04 2323.09 1970.95C2409.09 1970.75 2505.59 1935.27 2564.65 1882.95C2576.46 1872.49 2583.82 1867.79 2592.98 1857.26C2624.95 1820.51 2637.25 1810.58 2661.53 1758.33C2685.99 1705.7 2696.23 1645.79 2690.11 1565.73C2677.62 1402.36 2478.17 1282.63 2289.71 1337.88C2233.26 1354.42 2187.48 1397.66 2139.23 1408.9C2139.23 1381.7 2156.16 1368.02 2074.41 1365.7C1994.74 1363.42 2032.41 1346.76 1987.97 1376.5C1992.01 1359.15 1995.52 1358.18 2001.93 1341.84C2004.06 1336.41 2005.53 1330.91 2007.31 1325.61L2014.98 1306.27C2014.98 1334.61 2008.16 1345.93 2026.86 1353.82C2055.66 1365.97 2158.06 1359.19 2191.01 1352.65C2265.56 1337.85 2296.89 1307.98 2345.41 1269.34C2379.21 1242.43 2424.39 1171.26 2436.61 1122.84C2508.65 837.667 2119.25 620.623 1895.29 797.619C1883.99 806.004 1873.17 815.027 1862.89 824.643C1816.55 874.739 1841.34 889.227 1852.89 906.499C1804.49 895.219 1755.09 850.379 1614.55 878.851C1580.89 885.651 1533.93 899.455 1513.55 918.311C1486.52 943.315 1512.95 976.663 1495.61 1030.04C1495.21 1031.28 1494.56 1032.9 1494.17 1033.99L1490.93 1041.56C1490.93 986.647 1503.93 950.435 1481.9 899.315L1381.66 751.047C1258.64 627.847 1065.95 639.047 948.463 720.603C902.115 752.783 854.635 799.003 828.167 848.819L806.967 892.447C806.239 893.915 803.963 898.351 803.307 899.591L799.407 906.499C799.407 859.299 800.983 839.867 703.891 823.735C328.619 761.371 201.691 1245.38 496.835 1376.54C520.347 1386.99 541.159 1390.47 567.207 1398C594.359 1405.85 605.739 1424.07 637.347 1408.91Z" fill="#8A5CA6"/>
<path fill-rule="evenodd" clip-rule="evenodd" d="M1399.1 609.355C1410.72 617.431 1406.21 610.155 1409.9 625.563C1398.26 617.483 1402.78 624.771 1399.08 609.355H1399.1ZM1355.88 555.343C1369.65 564.563 1372.75 564.599 1377.48 582.355C1363.7 573.119 1360.6 573.083 1355.86 555.331L1355.88 555.343ZM1323.46 522.927C1305.71 518.187 1305.68 515.091 1296.45 501.327C1314.2 506.067 1314.24 509.163 1323.46 522.927ZM1075 377.087C1049.35 377.087 1064.76 377.203 1058.8 371.683C1084.46 371.683 1069.04 371.559 1075 377.087ZM1058.8 371.683C1050.64 366.319 1071.15 366.279 1042.59 366.279C1049.84 371.759 1031.23 371.683 1058.8 371.683ZM1026.4 360.883C1032.14 355.139 1046.89 369.455 1032.4 363.683C1032.27 363.635 1017.33 369.927 1026.4 360.883ZM1431.57 658.011C1477.93 658.011 1480.16 654.779 1455.25 580.315C1407.65 438.023 1383.65 421.043 1328.93 317.663C1291.28 317.663 1285.71 317.031 1285.71 355.479C1264.28 349.755 1255.71 317.051 1237.09 279.843C1208.57 222.803 1158.61 133.375 1119.49 84.0268C1105.66 66.5788 1097.31 63.8548 1075.01 74.5548C1067.76 89.6748 1065.41 124.955 1061.94 147.915C1056.95 180.975 1055.14 196.715 1042.6 220.419C1005.8 200.959 986.199 167.703 954.599 140.951C893.039 88.8508 798.311 45.8469 853.523 150.187C813.151 150.187 775.603 134.499 729.415 133.695C658.467 132.455 546.527 150.571 478.487 164.123C447.427 170.307 389.387 182.815 367.311 193.407V225.807C387.899 239.595 429.495 256.899 453.747 269.007C492.991 288.631 528.079 297.923 534.783 323.035L437.935 339.635C402.335 346.867 372.335 348.415 345.699 366.251C345.699 405.763 375.347 421.395 426.979 452.443L540.179 512.115C532.207 546.335 500.159 550.283 508.259 575.643C517.223 603.695 637.459 570.927 677.511 563.007L747.511 548.707C769.991 548.411 754.579 560.803 743.771 569.207L625.151 672.707C609.367 688.767 592.171 706.831 605.023 733.611C643.895 752.263 840.275 723.283 884.419 715.875C1029.27 691.579 1013.25 691.159 1155.8 679.251C1277.84 669.063 1344.69 709.819 1424.56 783.947C1439.3 797.619 1466.6 815.839 1470.16 777.175C1473.68 738.023 1438.66 688.695 1431.5 657.975L1431.57 658.011Z" fill="#62BC48"/>
<path fill-rule="evenodd" clip-rule="evenodd" d="M853.441 960.512C853.441 985.852 861.265 1011.08 892.317 999.932C941.493 982.288 858.973 923.06 985.217 827.568C1080.78 755.284 1134.37 817.968 1134.37 755.22C1134.37 688.14 853.441 770.152 853.441 960.512Z" fill="#FFF1CF"/>
<path fill-rule="evenodd" clip-rule="evenodd" d="M1939.32 863.262C1975.1 930.886 1981 852.462 2090.58 852.462C2255.04 852.462 2259.82 1000.46 2306.68 911.89C2295.7 891.154 2288.02 882.518 2269.68 867.85C2253.98 855.294 2241.28 843.718 2223.5 832.994C2143.85 784.946 1981.52 783.494 1939.32 863.262Z" fill="#FFF1CF"/>
<path fill-rule="evenodd" clip-rule="evenodd" d="M675.16 1527.76C675.16 1553.59 677.772 1625 707.56 1625C722.152 1625 722.456 1622.42 734.572 1619.6C748.3 1567.83 729.168 1609.69 729.168 1527.76C729.168 1416.23 869.632 1392.5 869.632 1365.68C869.632 1351.1 867.052 1350.79 864.228 1338.68C841.828 1333.31 832.66 1327.05 781.952 1359.04C769.348 1367 740.668 1389.26 731.356 1400.29C703.708 1433.04 675.16 1470.15 675.16 1527.76Z" fill="#FFF1CF"/>
<path fill-rule="evenodd" clip-rule="evenodd" d="M2112.2 1635.8C2112.2 1682.1 2145.44 1666.4 2160.82 1662.82C2175.69 1598.98 2161.84 1567.22 2205.22 1523.52C2285 1443.18 2330.91 1505.87 2312.1 1425.12C2240.25 1408.38 2154.22 1478.94 2129.07 1544.62C2118.14 1573.79 2112.43 1604.66 2112.2 1635.8Z" fill="#FFF1CF"/>
<path fill-rule="evenodd" clip-rule="evenodd" d="M869.648 2456.97C869.648 2607.09 983.096 2664.45 983.096 2597.42C983.096 2575 897.636 2538.56 930.272 2404.14C940.672 2361.34 961.744 2358.2 923.672 2332.71C896.532 2339.03 888.576 2352.96 881.372 2376.85C874.156 2402.97 870.217 2429.88 869.648 2456.97Z" fill="#FFF1CF"/>
<path fill-rule="evenodd" clip-rule="evenodd" d="M1571.96 987.522C1571.96 1050.32 1648.23 960.59 1749.27 1026.32C1792.15 1054.21 1792.53 1064.59 1820.46 1079.37C1838.97 1069.58 1847.48 1070.48 1847.48 1046.97C1847.48 1017.09 1757.78 967.158 1726.84 956.914C1672.02 938.742 1571.96 944.306 1571.96 987.522Z" fill="#FFF1CF"/>
<path fill-rule="evenodd" clip-rule="evenodd" d="M1355.86 1727.65C1333.86 1819.47 1399.34 1700.29 1429.2 1924.42C1434.16 1961.58 1422.25 1986.96 1458.5 1986.96C1504.7 1986.96 1476.61 1861.93 1468.37 1831.23C1461.85 1807.6 1451.26 1785.29 1437.06 1765.3C1416.12 1735.89 1391.12 1713.96 1355.86 1727.65Z" fill="#FFF1CF"/>
<path fill-rule="evenodd" clip-rule="evenodd" d="M1696.21 2332.71C1728.34 2311.2 1753.79 2226.36 1848.87 2209.85C1885.42 2203.5 1912.31 2210.04 1912.31 2176.04C1912.31 2139.94 1855.57 2151.78 1830.4 2158.96C1791.41 2170.09 1776.83 2178.44 1747.1 2199.92C1718.7 2220.44 1703.75 2234.72 1685.65 2262.72C1667.92 2290.22 1646.55 2321.14 1696.21 2332.71Z" fill="#FFF1CF"/>
<path fill-rule="evenodd" clip-rule="evenodd" d="M426.652 1932.93C426.652 1980.74 465.62 1963.37 473.328 1952.89C481.192 1942.19 479.368 1934.09 482.252 1918.31C484.492 1906.89 487.774 1895.7 492.056 1884.88C498.316 1869.16 511.656 1847.99 525.256 1837.07C548.108 1818.75 559.028 1827.09 567.1 1792.47C533.66 1742.53 484.972 1794.33 462.08 1827.91C444.452 1853.81 426.652 1892.18 426.652 1932.93Z" fill="#FFF1CF"/>
<path fill-rule="evenodd" clip-rule="evenodd" d="M459.07 960.512C459.07 973.108 473.47 987.52 486.082 987.52C506.334 987.52 522.23 940.804 577.974 938.952C606.082 938.016 623.754 943.136 625.51 916.74C628.854 866.528 536.55 885.324 506.71 905.488C492.53 915.048 459.07 940.904 459.07 960.512Z" fill="#FFF1CF"/>
<path fill-rule="evenodd" clip-rule="evenodd" d="M912.867 2116.62C927.459 2116.62 927.763 2114.04 939.883 2111.22C945.307 2087.92 946.523 2083.92 930.531 2066.69C873.451 2005.18 945.487 1983.84 905.015 1956.56C862.451 1927.88 842.859 2017.43 864.019 2068.22C869.823 2082.15 895.735 2116.62 912.867 2116.62Z" fill="#FFF1CF"/>
<path fill-rule="evenodd" clip-rule="evenodd" d="M1588.16 2419.15C1588.16 2431.52 1589.99 2425.43 1593.56 2440.75C1630.52 2449.6 1620.24 2454.64 1658.15 2408.09C1676.07 2386.09 1671.75 2399.3 1663.8 2365.11C1649.31 2361.64 1653.61 2359.71 1642.2 2359.71C1619.92 2359.72 1588.16 2400.5 1588.16 2419.15Z" fill="#FFF1CF"/>
<path fill-rule="evenodd" clip-rule="evenodd" d="M729.203 1684.43C729.203 1725.94 772.063 1723.23 799.435 1716.83C811.711 1664.13 808.311 1652 767.035 1652C745.179 1652 729.203 1663.78 729.203 1684.43Z" fill="#FFF1CF"/>
<path fill-rule="evenodd" clip-rule="evenodd" d="M2150 1792.48C2161.91 1792.48 2169.89 1785.18 2177.63 1776.88C2178.28 1776.18 2179.55 1774.48 2180.06 1773.91C2180.57 1773.34 2181.57 1771.84 2182.42 1770.87C2178.18 1752.67 2164.64 1725.23 2155.41 1711.44H2128.4C2115.33 1730.97 2103.57 1745.29 2128.83 1775.84C2133.2 1781.13 2141.65 1792.48 2150 1792.48Z" fill="#FFF1CF"/>
<path fill-rule="evenodd" clip-rule="evenodd" d="M1442.3 1668.22C1442.84 1668.76 1443.9 1665.85 1443.9 1666.62C1443.8 1666.71 1441.76 1667.68 1442.3 1668.22Z" fill="#FFF1CF"/>
<path fill-rule="evenodd" clip-rule="evenodd" d="M1874.49 576.964C1823.06 576.964 1899.41 436.256 1955.53 398.68C1964.19 435.88 1980.18 468.424 1939.49 528.512C1927.35 546.44 1903.19 576.964 1874.49 576.964ZM2198.63 495.924C2173.79 451.696 2227.33 383.784 2247.25 360.868C2247.25 402.008 2241.14 484.576 2198.63 495.924ZM864.229 112.36C899.889 131.224 926.409 144.864 954.825 173.028C974.245 192.272 1011.29 242.016 1042.51 242.016C1080.02 242.016 1091.13 134.7 1091.13 90.7482C1123.89 128.4 1162 192.088 1184.8 234.8C1199.95 263.2 1213.41 283.2 1225.47 312.988C1270.31 423.788 1306.48 379.652 1307.26 344.644C1327.93 350.16 1319.75 348.92 1331.43 369.092L1442.32 620.164C1432.81 613.196 1356.72 490.472 1217.19 413.1C1197.07 401.944 1180.39 394.72 1159.59 384.248C1129.49 369.076 1004.72 302.224 1004.72 366.248C1004.72 393.34 1080.29 403.708 1145.2 436.46C1277.32 503.12 1411.67 616.728 1447.71 771.428C1418.78 752.048 1389.34 717.428 1346.85 694.012C1300.13 668.256 1263.43 652.572 1199.2 652.572C1098.33 652.572 1001.49 669.308 914.265 686.38C830.517 702.78 722.529 717.4 621.149 717.4C664.053 653.328 733.481 614.552 771.549 575.8C781.549 565.6 787.625 561.056 785.489 547C779.529 507.772 734.805 526.2 706.269 532.4L534.717 566.14C549.517 544.044 561.729 547.592 561.729 512.116C561.729 487.128 458.965 445.752 414.693 416.048C402.105 407.604 374.653 387.172 367.245 377.06L523.537 349.668C536.169 347.148 561.729 335.696 561.729 323.036C561.729 283.576 514.653 273.188 486.025 258.276L394.237 209.6C517.565 180.868 643.341 148.456 771.653 161.696C821.413 166.828 875.049 199.696 875.049 139.368L864.249 112.36H864.229ZM1550.35 668.8L1565.07 467.424C1573.93 399.944 1571.96 326.688 1571.96 252.82C1560.31 245.02 1556.06 240.46 1539.56 236.612C1502.55 268.78 1514.29 327.492 1506.32 403.26L1495.52 538.348C1493.56 556.268 1490.92 562.052 1490.92 587.764L1382.7 350.216C1313.6 230.8 1295.86 278.152 1269.43 285.2C1258.14 236.8 1163.73 95.6642 1130.56 51.3082C1120.74 38.1802 1102.16 7.7082 1087.3 1.9322C1076.1 -2.4278 1048.5 -2.1598 1043.47 32.2322C1041.26 47.3002 1042.45 61.5282 1040.24 77.6322C1036.24 107 1031.72 136.832 1031.72 166.348C1006.33 159.548 985.505 119.404 928.857 85.5282C878.409 55.3602 732.117 -14.8718 799.417 112.328C719.693 93.7522 587.849 112.852 516.217 126.244C438.401 140.8 398.481 154.98 333.601 170.544C306.589 177.028 293.029 178.588 286.197 204.176C282.801 242 355.201 252.068 414.061 281.6L446.417 297.864C457.245 304.36 451.893 300.592 459.069 306.828C427.897 307.52 373.713 322.584 341.429 329.652C230.893 353.852 360.397 446.748 401.881 472.052C435.369 492.492 463.357 505.172 496.885 522.912C484.485 541.436 470.981 548.66 456.509 569.064C431.741 603.976 442.129 600.264 459.069 625.56C493.729 626.227 528.344 622.756 562.181 615.22C587.329 610.204 634.921 599.084 658.953 598.544C649.353 612.904 635.301 619.516 622.337 632.144C606.537 647.552 542.473 715.936 549.181 741.684C553.301 757.512 562.025 761.184 579.201 764.724C649.081 779.124 667.601 766.156 712.837 765.86C976.765 764.148 889.285 679.708 1118.16 679.564C1234.43 679.488 1298.09 705.564 1357.13 764.736C1373.09 780.736 1384.06 785.856 1400.51 802.388L1460.22 861.532C1493.79 895.82 1454.22 929.232 1528.74 911.868C1536.59 895.488 1528.45 896.392 1540.29 880.196C1545.67 872.836 1552.89 870.196 1561.15 857.844C1558.43 825.184 1550.75 850.032 1551.67 821.152C1553.86 751.768 1662.28 587.028 1711.03 532.308C1751.79 486.548 1820.41 407.108 1879.89 393.24C1852.25 434.524 1822.2 469.308 1808.21 526.92C1776.09 659.16 1943.63 671.036 2002.04 526.196C2010.1 506.196 2021.17 467.604 2020.65 441.952C2019.89 404.508 2006.38 385.472 1993.34 360.828C2004.36 353.452 2005.74 350.108 2017.19 341.456L2098.95 293.6C2144.6 275.344 2194.4 254.8 2225.64 301.44C2201.41 337.6 2176.69 349.6 2152.12 411.6C2098.19 547.72 2229.85 609.348 2282.96 477.6C2315.01 398.124 2295.87 367.076 2295.87 312.236C2340.21 282.548 2371.84 260.272 2427.79 238.86C2453.45 228.81 2479.9 220.931 2506.88 215.304C2541.81 208.024 2581.58 212.452 2593 193.384C2628.35 119.728 2452.67 172.1 2428.78 180.428C2339.49 211.556 2332.24 230.08 2268.86 263.628L2249.29 245.38C2242.16 239.543 2234.27 234.715 2225.82 231.032C2207.23 222.288 2190.57 218.604 2160.85 220.176C2087.86 224.028 2010.82 279.696 1957.89 320.452C1924.81 345.928 1921.85 310.296 1841.94 349.928C1767.03 387.08 1693.23 463.392 1643.71 529.872L1550.35 668.8Z" fill="#318A42"/>
<path fill-rule="evenodd" clip-rule="evenodd" d="M1415.97 2946.53C1331.5 2946.53 1276.15 2932.93 1214.21 2892.39C1191.37 2877.58 1171.2 2859.01 1154.55 2837.46C1121.63 2793.61 1131.6 2795.56 1114.23 2759.37C1169.77 2759.37 1211.07 2750.95 1247.99 2732.7C1274.63 2719.96 1299.37 2703.56 1321.47 2683.97C1375.83 2635.41 1411.59 2587.94 1442.67 2518.7C1446.79 2509.54 1451.07 2498.85 1454.67 2488.7L1465.63 2457.64C1465.63 2545.24 1507.23 2639.4 1581.89 2688.95C1599.7 2700.77 1640.09 2722.99 1664.24 2725.01C1642.87 2769.55 1658.21 2802.76 1583.15 2876.91C1548.29 2911.35 1484.42 2946.53 1415.95 2946.53L1415.97 2946.53ZM1137.17 2705.9C1182.21 2705.9 1228.51 2685.79 1255.64 2667.77C1340.15 2611.6 1423.64 2488.17 1423.64 2373.61C1423.64 2306.36 1421.57 2288.95 1390.54 2227.21C1381.27 2208.77 1374.83 2197.29 1365.17 2180.01C1358.17 2167.5 1342.55 2144.01 1339.61 2132.99C1323.98 2137.17 1309.35 2173.39 1250.57 2208.19C1216.72 2228.23 1182.38 2246.62 1139.35 2257.39C1117.11 2263.12 1094.52 2267.32 1071.71 2269.97C1058.28 2271.37 1044.49 2270.07 1030.67 2271.19C957.522 2277.12 916.182 2255.46 865.994 2243.77C841.402 2260.23 831.47 2274.84 822.526 2303.42C787.694 2414.75 817.354 2529.22 899.41 2611.39C915.97 2627.97 920.358 2632.76 940.842 2646.35C1006.15 2689.7 1056.15 2705.93 1137.18 2705.93L1137.17 2705.9ZM1763.57 2686.8C1868.23 2686.8 1985.08 2639.8 2065.88 2576.61C2131.46 2525.32 2218.09 2430.61 2218.09 2316.31C2218.09 2122.05 1948.53 2026.59 1762.3 2120.24C1749.93 2126.46 1740.59 2131.27 1729.25 2136.85C1700.57 2150.98 1666.59 2160.97 1638.42 2187.34C1630.33 2194.92 1620.82 2204.07 1613.69 2212.31C1584.09 2246.59 1581.85 2229.17 1554.49 2290.58C1472.72 2474.23 1528.57 2686.8 1763.55 2686.8H1763.57ZM1415.97 2159.71C1472.22 2172.82 1477.55 2171.17 1534.37 2171.17C1555.57 2171.17 1557.02 2167.35 1576.37 2167.35C1552.59 2189.91 1535.55 2215.78 1517.37 2245.85C1508.89 2260.9 1501.61 2276.6 1495.6 2292.8L1477.1 2343.05C1477.1 2271.99 1441.15 2207.27 1415.99 2159.71L1415.97 2159.71ZM1870.49 2033.67C1885.01 2011.99 1912.89 1993.05 1939.29 1942.07C1954.89 1911.92 1977.43 1860.98 1977.43 1815.97H1985.07C1997.11 1867.65 2065.03 1927.63 2113.7 1954.7C2144.33 1971.37 2177.2 1983.52 2211.3 1990.77C2267.63 2002.68 2257.54 1996.7 2300.48 2000.94L2347.91 1999.31C2363.82 1999.31 2358.8 2013.35 2360.65 2028.62C2371.15 2114.82 2311.61 2231.51 2256.25 2236.12C2242.01 2175 2182.25 2115.25 2133.91 2087.28C2067.44 2049.94 1992.55 2030.18 1916.31 2029.87C1897.16 2029.87 1892.79 2033.69 1870.47 2033.69L1870.49 2033.67ZM774.302 2045.13C774.302 2004.81 777.134 1987.45 792.258 1952.33C811.878 1906.76 826.142 1912.78 831.594 1892.36C877.522 1896.18 878.718 1911.46 988.19 1911.46C1037.14 1911.46 1078.76 1900.03 1116.66 1887.15C1150.19 1875.75 1166.01 1866.67 1194.26 1850.18C1203.55 1844.77 1209.27 1838.24 1221.16 1835.07C1266.01 1858.79 1328.11 1920.86 1328.11 1987.84C1328.11 2064.46 1293.92 2111.04 1239.76 2151.58C1138.4 2227.44 973.886 2240.29 869.974 2186.25C822.538 2161.59 774.282 2117.45 774.282 2045.14L774.302 2045.13ZM720.83 2026.03C720.83 2074.54 725.77 2109.95 750.546 2149.09C761.99 2168.78 777.279 2185.97 795.502 2199.63C806.334 2208.23 803.426 2209.75 816.302 2213.19V2220.83C798.302 2225.63 705.434 2304.85 587.134 2304.85C510.298 2304.85 449.366 2276.45 410.462 2237.08C385.194 2211.5 374.754 2201.01 357.918 2167.4C303.058 2057.85 334.474 1906.2 404.318 1812.65C448.062 1754.04 498.47 1720.47 594.79 1720.47C606.874 1720.47 626.842 1769.37 675.494 1807.83C690.904 1820.73 707.259 1832.47 724.422 1842.93C743.222 1854.15 762.102 1862.75 781.946 1873.25C774.07 1885.02 766.99 1888.83 758.174 1902.96C738.554 1934.43 720.83 1986.79 720.83 2026.03ZM1393.06 1560.06C1407.33 1563.38 1441.4 1581.75 1483.15 1592.19C1559.15 1611.2 1647.29 1617.85 1724.45 1601.17L1790.28 1582.97C1824.89 1582.97 1869.81 1622.53 1886.41 1643.44C1971.91 1751.04 1922.41 1931.36 1797.41 2025.52C1716.38 2086.55 1614.43 2117.7 1492.37 2117.7C1456.05 2117.7 1417.67 2107.93 1395.17 2092.66C1354.16 2064.83 1381.59 2059.77 1381.59 1991.66C1381.59 1947.13 1361.93 1903.17 1343.43 1877.04C1329.77 1857.75 1286.14 1806.81 1263.19 1800.68C1271.37 1770.04 1350.93 1740.82 1393.05 1560.06H1393.06ZM2008 1693.74C2008 1877.28 2199.77 1974.61 2368.77 1943.74C2415.11 1935.28 2451.85 1925.01 2487.07 1905.43C2507.31 1894.18 2516.99 1889.83 2534.58 1876.56C2547.87 1866.51 2565.17 1853.9 2576.23 1841.82C2644.37 1767.32 2668.77 1695.25 2668.77 1590.62C2668.77 1450.53 2523.68 1346.17 2389.95 1346.17C2312.63 1346.17 2267.55 1370.47 2217.97 1399.54C2206.87 1406.03 2198.65 1408.02 2186.46 1413.87C2078.53 1465.71 2008 1568.72 2008 1693.74ZM1958.35 1655.55C1958.35 1588.95 1998.18 1511.91 2034.14 1467.79C2068.37 1425.79 2109.62 1399.27 2114.94 1392C2078.75 1392 2045.24 1384.36 2011.81 1384.36C2003.38 1420.57 1934.41 1495.75 1904.95 1518.12C1894.18 1526.3 1865.38 1543.76 1859.04 1552.42C1927.04 1588.39 1933.65 1627.13 1958.35 1655.55H1958.35ZM1343.4 1529.5C1271.89 1491.66 1237.86 1423.87 1227.51 1347.21C1224.52 1325.11 1227.11 1332.51 1228.82 1311.79C1213.95 1313.03 1197.99 1317.93 1182.68 1319.13C1125.06 1323.63 1149.03 1326.39 1084.68 1318.42C1042.72 1313.31 1001.92 1301.18 963.974 1282.53L896.526 1246.86C809.514 1246.86 750.498 1305.54 708.438 1352.86C624.526 1447.29 579.57 1593.6 657.582 1711.14C761.982 1868.45 1053.69 1923.51 1229.87 1755.89C1282.45 1705.86 1341.81 1600.84 1343.4 1529.49V1529.5ZM1137.15 1269.77C950.922 1269.77 727.338 1100.23 845.554 867.374C858.466 841.938 893.554 793.723 915.622 777.027C967.498 737.775 987.466 713.674 1068.33 692.926C1113.82 682.123 1160.99 680.45 1207.13 688.006C1272.51 698.786 1350.48 733.435 1382.3 791.655L1412.13 838.223C1419.1 847.951 1424.59 851.286 1431.93 860.434C1444.04 875.905 1453.97 892.976 1461.41 911.163C1485.13 976.127 1468.43 1047.47 1440.26 1103.04C1424.71 1133.73 1394.61 1167.51 1368.05 1187.44C1303.91 1235.53 1223.81 1269.77 1137.19 1269.77L1137.15 1269.77ZM1671.88 895.467C1636.82 895.467 1529.35 916.434 1523.48 949.746C1521.35 961.794 1534.95 1032.37 1494.96 1111.95C1465.19 1171.21 1448.64 1186.19 1405.51 1224.94C1357.76 1267.85 1320.87 1276.17 1278.48 1296.51C1286.62 1313.49 1280.88 1317.93 1279.55 1331.91C1278.65 1341.17 1281.65 1356.31 1283.88 1367.51C1296.7 1432 1343.93 1472 1398.07 1501.57C1498.89 1556.67 1666.99 1581.61 1768.9 1531.04C1782.55 1524.27 1786.66 1526.78 1800.59 1520.71C1828.38 1508 1854.2 1491.38 1877.28 1471.36C1885.95 1463.76 1889.49 1462.54 1898.26 1454.16C1965.94 1389.4 2000.35 1310.05 2000.35 1197.23C2000.35 1055.81 1873.31 895.483 1725.35 895.483L1671.88 895.467ZM759.022 994.775C759.559 1035.67 768.683 1076 785.802 1113.14L827.23 1178.65C835.89 1189.02 839.406 1187.37 843.054 1201.03C817.566 1201.59 787.25 1219.66 769.242 1230.34C709.574 1265.73 649.202 1332.49 617.702 1392C601.702 1387.73 610.402 1384.2 573.45 1375.14C500.286 1357.21 463.962 1337.71 414.278 1282.23C321.606 1178.76 348.678 1013.49 444.814 917.371C567.274 794.919 778.122 853.575 778.122 880.191C778.122 903.259 759.022 929.727 759.022 994.775ZM2080.56 757.975C2158.27 757.975 2218.35 771.195 2281.42 816.847C2330.75 852.563 2356.91 882.318 2388.35 935.246C2408.97 969.983 2420.71 1009.27 2422.53 1049.62C2425.19 1091.4 2408.41 1137.51 2393.8 1166.68C2371.61 1211 2330.85 1256.03 2289.16 1283.57C2273.88 1294.36 2257.59 1303.66 2240.52 1311.32C2142.09 1351.11 2116.02 1334.69 2034.73 1334.69C2051.01 1264.82 2053.83 1279.69 2053.83 1201.01C2053.83 1125.99 2024.17 1051.14 1993.49 1005.44C1984.24 991.662 1976.79 980.05 1966.58 967.442C1956.43 955.977 1945.72 945.03 1934.47 934.642C1907.59 907.674 1893.3 898.347 1859.03 880.215C1864 820.487 2002.27 757.991 2080.56 757.991V757.975ZM804.858 830.535C710.93 767.639 555.202 778.987 456.494 841.207C438.222 852.727 426.234 864.503 409.166 877.907C387.702 894.755 353.166 947.054 340.138 973.106C295.418 1062.52 289.77 1168 335.018 1258.36C365.71 1319.64 420.002 1371.09 482.682 1400.98C499.73 1409.14 517.52 1415.65 535.81 1420.42C547.766 1423.8 550.582 1424.2 563.338 1427.27C577.338 1430.64 579.338 1434.73 590.966 1437.83C589.874 1450.97 587.042 1454.93 583.366 1464.63C564.274 1515.09 564.218 1544.43 564.218 1598.27C564.218 1628.34 573.666 1642.83 575.678 1667.02C482.918 1667.02 417.166 1713.27 364.694 1776.87C325.894 1823.88 277.758 1930.39 277.758 2014.59C277.758 2122.54 291.898 2195.52 368.398 2271.52C463.598 2366.12 597.454 2378.06 723.038 2330.01C737.594 2324.44 753.746 2315.51 766.638 2312.51C759.938 2326.47 755.178 2374.19 755.178 2396.54C755.133 2459.84 771.985 2522 803.994 2576.6C836.004 2631.21 882.01 2676.28 937.262 2707.17C963.786 2721.87 1023.88 2751.75 1060.74 2751.75C1072.4 2891.44 1246.17 3000 1381.6 3000C1498.9 3000 1535.31 2982.26 1614.03 2919.23C1654.71 2886.67 1710.08 2807.95 1710.08 2736.45C1769.36 2736.45 1771.22 2748.35 1865.77 2727.91C1947.41 2710.27 2047.03 2663.18 2110 2609.29C2175.6 2553.15 2234 2485.64 2258.52 2398.78C2269.24 2360.78 2271.54 2336.82 2271.54 2289.58C2318.14 2278.72 2364.7 2217.87 2384.87 2177.55C2397.77 2151.76 2409.05 2123.11 2412.35 2090.44C2416.35 2050.78 2412.23 2026.16 2409.04 1987.83C2447.69 1986.98 2497.93 1959.93 2531.27 1942.01C2639.64 1883.75 2722.24 1749.12 2722.24 1621.17C2722.24 1554.49 2717.35 1523.76 2689.15 1467.1C2672.07 1432.61 2647.81 1402.18 2618 1377.83C2566.85 1334.54 2475.47 1292.69 2382.3 1292.69C2367.9 1292.69 2375.1 1295.21 2359.39 1296.51C2370.71 1279.6 2386.67 1269.9 2399.84 1252.94C2482.46 1146.58 2502.95 1022.03 2431.27 903.798C2367.01 797.818 2246.36 704.494 2114.94 704.494C2031.13 704.494 1983.87 715.047 1916.27 750.279C1862.15 778.487 1834.53 804.855 1809.38 857.275C1730.61 838.923 1748.33 841.999 1668.06 841.999C1625.55 841.999 1579.36 855.414 1543.04 869.762C1525.58 876.654 1521.89 880.29 1507.64 887.83C1498.29 847.71 1457.82 816.554 1448.08 802.254C1438.08 787.59 1432.96 770.118 1422.99 754.774C1396.89 714.642 1344.61 680.718 1300.16 659.886C1188.9 607.726 1037.81 626.81 931.65 697.606C873.202 736.594 842.602 774.175 804.858 830.535Z" fill="#6B3092"/>
<path fill-rule="evenodd" clip-rule="evenodd" d="M1129.52 2618.06C1129.52 2658.5 1228.82 2644.66 1228.82 2591.32C1228.8 2551.67 1129.52 2579.34 1129.52 2618.06Z" fill="#6B3092"/>
<path fill-rule="evenodd" clip-rule="evenodd" d="M1969.8 2457.64C1969.8 2508.44 2057.64 2493.14 2057.64 2434.72C2057.64 2395.65 1969.8 2426.09 1969.8 2457.64Z" fill="#6B3092"/>
<path fill-rule="evenodd" clip-rule="evenodd" d="M529.855 1258.32C529.855 1300.93 617.703 1283.96 617.703 1246.86C617.703 1220.5 576.351 1211.02 547.563 1230.19C534.915 1238.62 529.855 1244.76 529.855 1258.32Z" fill="#6B3092"/>
<path fill-rule="evenodd" clip-rule="evenodd" d="M426.73 2148.26C426.73 2189.62 506.938 2188.1 506.938 2159.72C506.938 2130.18 498.894 2119.56 472.174 2119C452.698 2118.6 426.73 2126.52 426.73 2148.26Z" fill="#6B3092"/>
<path fill-rule="evenodd" clip-rule="evenodd" d="M1213.54 2480.55C1213.54 2534.84 1293.75 2492.88 1293.75 2457.64C1293.75 2431.9 1248.8 2434.52 1232.23 2449.59C1227.48 2453.9 1213.54 2472.13 1213.54 2480.55Z" fill="#6B3092"/>
<path fill-rule="evenodd" clip-rule="evenodd" d="M1209.72 1128.46C1276.32 1128.46 1276.95 1063.53 1232.64 1063.53C1188.8 1063.53 1163.64 1128.46 1209.72 1128.46Z" fill="#6B3092"/>
<path fill-rule="evenodd" clip-rule="evenodd" d="M1106.59 1621.17C1106.59 1656.29 1171.55 1649.28 1183.57 1617.51C1199.36 1575.75 1106.59 1567.84 1106.59 1621.17Z" fill="#6B3092"/>
<path fill-rule="evenodd" clip-rule="evenodd" d="M1087.5 1754.85C1143.61 1754.85 1171.17 1693.74 1095.14 1693.74C1070.83 1693.74 1040.43 1754.85 1087.5 1754.85Z" fill="#6B3092"/>
<path fill-rule="evenodd" clip-rule="evenodd" d="M1897.23 2576.04C1897.23 2638.67 1998.73 2588.79 1967.97 2551.13C1948.23 2526.95 1897.23 2554.06 1897.23 2576.04Z" fill="#6B3092"/>
<path fill-rule="evenodd" clip-rule="evenodd" d="M2176.05 1159.01C2176.05 1203.12 2236.22 1186.87 2247.62 1161.41C2272.44 1106.03 2176.05 1124.02 2176.05 1159.01Z" fill="#6B3092"/>
<path fill-rule="evenodd" clip-rule="evenodd" d="M1079.86 2102.42C1079.86 2155.42 1156.26 2117.16 1156.26 2087.14C1156.25 2051.44 1079.86 2071.6 1079.86 2102.42Z" fill="#6B3092"/>
<path fill-rule="evenodd" clip-rule="evenodd" d="M1729.17 1846.52C1729.17 1886.68 1797.92 1880.44 1797.92 1819.79C1797.92 1796.62 1729.17 1809.56 1729.17 1846.52Z" fill="#6B3092"/>
<path fill-rule="evenodd" clip-rule="evenodd" d="M1003.47 1674.64C1003.47 1695.72 1028.89 1693.74 1037.84 1693.74C1061.42 1693.74 1097.27 1655.34 1068.1 1640.37C1048.88 1630.5 1003.47 1644.77 1003.47 1674.64Z" fill="#6B3092"/>
<path fill-rule="evenodd" clip-rule="evenodd" d="M2378.48 1842.7C2378.48 1870.75 2414.29 1875.5 2435.8 1861.82C2477.51 1835.26 2427.64 1791.87 2391.45 1821.3C2386.94 1824.97 2378.48 1836.34 2378.48 1842.7Z" fill="#6B3092"/>
<path fill-rule="evenodd" clip-rule="evenodd" d="M548.953 2186.45C548.953 2198.08 558.917 2205.89 569.381 2207.83C577.225 2209.28 594.381 2204.39 601.877 2201.21C637.477 2186.09 629.673 2169.96 617.701 2152.08C598.237 2152.51 548.953 2161.28 548.953 2186.45Z" fill="#6B3092"/>
<path fill-rule="evenodd" clip-rule="evenodd" d="M1664.24 1953.47L1668.06 1976.38C1695.93 1982.88 1736.81 1979.53 1736.81 1942.01C1736.8 1910.57 1664.24 1925.6 1664.24 1953.47Z" fill="#6B3092"/>
<path fill-rule="evenodd" clip-rule="evenodd" d="M2137.86 1239.22C2137.86 1282.82 2181.46 1269.58 2195.25 1262.25C2211.36 1253.68 2227.25 1216.31 2176.05 1216.31C2158.86 1216.31 2137.86 1223.53 2137.86 1239.22Z" fill="#6B3092"/>
<path fill-rule="evenodd" clip-rule="evenodd" d="M533.672 1147.56C533.672 1176.02 598.236 1174.97 602.424 1124.64L599.056 1120.37C596.896 1118.14 598.012 1117.95 593.252 1114.71C576.2 1103.12 533.672 1105.6 533.672 1147.56Z" fill="#6B3092"/>
<path fill-rule="evenodd" clip-rule="evenodd" d="M1202.08 2048.95C1202.08 2099.8 1270.51 2068.25 1267.01 2041.31C1266.9 2040.44 1257.33 2014.58 1236.46 2014.58C1217.41 2014.58 1202.08 2033.26 1202.08 2048.95Z" fill="#6B3092"/>
<path fill-rule="evenodd" clip-rule="evenodd" d="M1492.37 2805.2C1492.37 2829.01 1536.87 2834.35 1558.15 2801.91C1563.82 2793.26 1576.62 2745.42 1508.68 2779.51C1497.68 2785.03 1492.37 2790 1492.37 2805.2Z" fill="#6B3092"/>
<path fill-rule="evenodd" clip-rule="evenodd" d="M2458.69 1766.31C2458.69 1784.78 2483.32 1793.08 2510.2 1775.81C2541.74 1755.53 2523.93 1728.12 2508.34 1728.12C2483.2 1728.12 2458.69 1741.51 2458.69 1766.31Z" fill="#6B3092"/>
<path fill-rule="evenodd" clip-rule="evenodd" d="M1423.6 2831.95V2851.04C1423.6 2879.84 1484.71 2872.07 1484.71 2831.95C1484.73 2802.07 1423.6 2810.53 1423.6 2831.95Z" fill="#6B3092"/>
<path fill-rule="evenodd" clip-rule="evenodd" d="M1755.91 1460.75C1755.91 1485.62 1795.25 1486.12 1814.03 1457.55C1826.73 1438.24 1815.63 1403.52 1785.51 1425.42C1781.32 1428.94 1776.88 1432.16 1772.24 1435.06C1761.23 1441.98 1755.91 1444.02 1755.91 1460.75Z" fill="#6B3092"/>
<path fill-rule="evenodd" clip-rule="evenodd" d="M1098.96 2534.02C1098.96 2573.92 1163.89 2565.08 1163.89 2522.57C1163.89 2495.13 1098.96 2505.86 1098.96 2534.02Z" fill="#6B3092"/>
<path fill-rule="evenodd" clip-rule="evenodd" d="M655.898 1185.75L659.714 1208.67C697.714 1217.52 742.914 1207.22 713.19 1162.83C692.998 1162.83 655.898 1166.4 655.898 1185.75Z" fill="#6B3092"/>
<path fill-rule="evenodd" clip-rule="evenodd" d="M2382.3 1758.67C2382.3 1793.58 2447.23 1770.67 2447.23 1731.93C2447.23 1709.39 2421.54 1719.16 2410.22 1725.37C2395.55 1733.42 2382.3 1738.28 2382.3 1758.67Z" fill="#6B3092"/>
<path fill-rule="evenodd" clip-rule="evenodd" d="M1339.6 998.598C1339.6 1022.43 1382.72 1024.53 1399.71 997.15C1425.72 955.202 1339.6 953.914 1339.6 998.598Z" fill="#6B3092"/>
<path fill-rule="evenodd" clip-rule="evenodd" d="M1320.49 1120.82C1361.46 1120.82 1391.71 1067.35 1339.58 1067.35C1302.28 1067.35 1290.03 1120.82 1320.49 1120.82Z" fill="#6B3092"/>
<path fill-rule="evenodd" clip-rule="evenodd" d="M1847.58 1376.72C1847.58 1425.07 1902.28 1393.96 1907.33 1371.29C1915.76 1333.41 1847.58 1352.4 1847.58 1376.72Z" fill="#6B3092"/>
</g>
<defs>
<clipPath id="clip0_2790_7234">
<rect width="3000" height="3000" fill="white"/>
</clipPath>
</defs>
</svg>
